<?xml version="1.0" encoding="UTF-8" standalone="no"?><!-- Generator: Gravit.io --><svg xmlns="http://www.w3.org/2000/svg" xmlns:xlink="http://www.w3.org/1999/xlink" style="isolation:isolate" viewBox="0 0 1024 1024" width="1024pt" height="1024pt"><defs><clipPath id="_clipPath_LaMaevS8GJypGAUMXo7263HCEwoFCu2w"><rect width="1024" height="1024"/></clipPath></defs><g clip-path="url(#_clipPath_LaMaevS8GJypGAUMXo7263HCEwoFCu2w)"><g><path d=" M 525.131 241.912 C 511.75 211.285 462.244 155.102 408.684 126.563 C 395.157 119.355 378.573 127.821 376.225 142.968 C 375.199 149.592 374.635 155.492 375.297 158.106 C 327.928 145.327 282.438 172.884 236.519 189.115 C 232.236 190.63 228.871 193.995 227.356 198.278 C 211.125 244.197 183.568 289.687 196.347 337.056 C 193.733 336.394 187.833 336.956 181.209 337.982 C 166.062 340.33 157.596 356.915 164.804 370.442 C 193.343 424.001 249.526 473.509 280.153 486.89 L 525.131 241.912 Z " fill="rgb(75,81,101)"/><path d=" M 860.939 847.321 C 854.929 817.267 792.037 644.328 767.467 592.9 C 771.396 561.989 763.541 532.587 742.966 512.012 C 701.791 470.836 625.27 480.597 572.055 533.813 C 518.838 587.03 509.077 663.55 550.253 704.725 C 550.917 705.389 551.614 706.001 552.296 706.639 C 523.205 760.03 490.589 826.371 485.59 836.577 C 474.882 858.435 483.921 884.836 505.782 895.542 C 527.61 906.237 554.026 897.239 564.747 875.35 C 579.596 845.037 616.355 771.755 641.553 727.445 C 666.127 722.276 691.115 709.833 712.955 690.587 C 738.663 756.691 771.205 848.799 774.507 864.606 C 779.291 888.531 802.554 903.941 826.367 899.178 C 850.235 894.408 865.714 871.189 860.939 847.321 L 860.939 847.321 Z " fill="rgb(255,211,189)"/><path d=" M 851.799 815.894 C 832.101 755.097 787.302 634.414 767.467 592.901 C 771.396 561.991 763.541 532.589 742.966 512.013 C 701.791 470.838 625.27 480.598 572.055 533.815 C 518.838 587.032 509.077 663.551 550.253 704.726 C 550.917 705.39 551.614 706.003 552.296 706.641 C 534.164 739.919 514.665 778.223 501.335 804.835 C 518.428 809.189 559.369 824.294 579.806 845.012 C 597.573 809.585 622.772 760.473 641.553 727.448 C 666.127 722.279 691.115 709.836 712.955 690.59 C 732.213 740.11 755.306 804.222 767.07 839.919 C 780.6 825.21 824.242 810.44 851.799 815.894 L 851.799 815.894 Z " fill="rgb(75,81,101)"/><path d=" M 423.363 781.141 C 410.268 802.038 382.712 808.365 361.814 795.271 C 340.919 782.176 334.593 754.621 347.685 733.724 C 362.336 710.342 424.265 553.88 427.324 528.2 C 430.213 503.735 452.264 486.119 476.764 488.924 C 501.265 491.729 518.853 513.873 516.049 538.375 C 511.027 581.972 442.528 750.555 423.363 781.141 L 423.363 781.141 Z " fill="rgb(255,211,189)"/><path d=" M 615.92 455.663 C 598.098 472.707 569.832 472.076 552.787 454.252 C 535.742 436.428 536.322 408.12 554.197 391.12 C 572.039 374.089 656.359 258.698 685.872 208.989 C 698.459 187.787 725.859 180.798 747.063 193.388 C 768.268 205.979 775.254 233.375 762.664 254.58 C 738.302 295.614 646.502 426.385 615.92 455.663 L 615.92 455.663 Z " fill="rgb(255,190,157)"/><path d=" M 674.714 636.473 C 698.489 612.697 774.505 526.242 733.153 492.47 C 664.356 436.287 516.34 375.403 464.992 426.751 C 413.644 478.099 474.528 626.115 530.711 694.912 C 564.482 736.264 650.938 660.248 674.714 636.473 Z " fill="rgb(142,175,226)"/><path d=" M 551.484 513.244 C 577.225 487.503 596.471 457.071 608.099 424.401 C 550.664 404.22 493.221 398.525 464.992 426.752 C 436.763 454.981 442.459 512.424 462.641 569.859 C 495.311 558.23 525.742 538.985 551.484 513.244 L 551.484 513.244 Z " fill="rgb(124,147,221)"/><circle vector-effect="non-scaling-stroke" cx="282.84680858588655" cy="492.7488526280407" r="56.348476326995865" fill="rgb(255,211,189)"/><circle vector-effect="non-scaling-stroke" cx="530.989891617966" cy="244.60728539938071" r="56.348476326995865" fill="rgb(255,190,157)"/><path d=" M 287.314 499.39 C 227.208 439.285 234.478 334.419 303.538 265.359 C 372.598 196.3 477.463 189.03 537.569 249.135 C 597.674 309.241 590.404 414.106 521.345 483.166 C 452.285 552.226 347.419 559.496 287.314 499.39 Z " fill="rgb(255,211,189)"/><path d=" M 559.26 430.712 C 388.28 564.249 271.686 406.736 257.915 335.86 C 236.271 393.937 245.447 457.5 287.352 499.405 C 347.506 559.559 452.302 552.296 521.418 483.18 C 537.34 467.256 549.971 449.439 559.26 430.712 Z " fill="rgb(255,190,157)"/><g><g><g><g><path d=" M 309.405 511.719 C 295.161 497.475 298.118 471.389 316.005 453.502 C 333.892 435.616 359.978 432.658 374.222 446.902 C 388.465 461.146 385.508 487.232 367.621 505.118 C 349.734 523.005 323.649 525.963 309.405 511.719 Z " fill="rgb(237,161,171)"/></g><g><path d=" M 485.094 336.063 C 470.85 321.819 473.808 295.733 491.694 277.846 C 509.581 259.96 535.667 257.002 549.911 271.246 C 564.155 285.49 561.197 311.576 543.31 329.462 C 525.424 347.349 499.338 350.307 485.094 336.063 Z " fill="rgb(237,161,171)"/></g></g></g><g><path d=" M 335.917 446.955 C 333.008 446.955 330.097 445.845 327.877 443.626 L 314.627 430.377 C 310.187 425.935 310.187 418.738 314.627 414.298 C 319.068 409.86 326.265 409.86 330.705 414.298 L 343.955 427.548 C 348.395 431.989 348.395 439.186 343.955 443.626 C 341.736 445.844 338.825 446.955 335.917 446.955 L 335.917 446.955 Z " fill="rgb(75,81,101)"/><path d=" M 473.826 309.044 C 470.917 309.044 468.007 307.935 465.788 305.715 L 452.536 292.466 C 448.095 288.026 448.095 280.827 452.535 276.389 C 456.976 271.948 464.175 271.949 468.613 276.388 L 481.864 289.637 C 486.306 294.077 486.306 301.276 481.866 305.714 C 479.645 307.935 476.735 309.044 473.826 309.044 Z " fill="rgb(75,81,101)"/><path d=" M 388.65 395.866 C 387.607 395.866 386.564 395.831 385.518 395.759 C 379.253 395.328 374.526 389.902 374.956 383.637 C 375.387 377.373 380.8 372.681 387.078 373.075 C 393.647 373.522 400.078 371.122 404.72 366.479 C 409.363 361.838 411.766 355.406 411.316 348.835 C 410.887 342.571 415.616 337.144 421.879 336.715 C 428.141 336.304 433.569 341.014 434 347.279 C 434.902 360.409 430.089 373.267 420.8 382.558 C 412.246 391.108 400.675 395.866 388.65 395.866 L 388.65 395.866 Z " fill="rgb(75,81,101)"/></g></g></g><path d=" M 1024 0 L 551 0 L 1024 473 L 1024 0 Z " fill="rgb(75,81,101)"/><path d=" M 782.604 156.138 L 782.604 156.138 L 782.604 156.138 Q 774.059 164.684 762.989 163.454 L 762.989 163.454 L 762.989 163.454 Q 751.919 162.224 740.956 151.261 L 740.956 151.261 L 740.956 151.261 Q 730.857 141.162 726.887 129.596 L 726.887 129.596 L 739.316 117.166 L 739.316 117.166 Q 742.855 126.402 746.114 131.991 L 746.114 131.991 L 746.114 131.991 Q 749.372 137.58 753.041 141.249 L 753.041 141.249 L 753.041 141.249 Q 757.443 145.651 761.478 146.32 L 761.478 146.32 L 761.478 146.32 Q 765.513 146.989 768.837 143.665 L 768.837 143.665 L 768.837 143.665 Q 770.692 141.81 771.102 139.328 L 771.102 139.328 L 771.102 139.328 Q 771.512 136.846 770.843 133.502 L 770.843 133.502 L 770.843 133.502 Q 770.175 130.157 766.938 121.05 L 766.938 121.05 L 766.938 121.05 Q 763.873 112.548 763.485 107.153 L 763.485 107.153 L 763.485 107.153 Q 763.097 101.759 764.693 96.709 L 764.693 96.709 L 764.693 96.709 Q 766.29 91.66 770.736 87.214 L 770.736 87.214 L 770.736 87.214 Q 779.108 78.842 789.574 79.726 L 789.574 79.726 L 789.574 79.726 Q 800.04 80.611 810.053 90.624 L 810.053 90.624 L 810.053 90.624 Q 814.973 95.544 818.275 101.176 L 818.275 101.176 L 818.275 101.176 Q 821.576 106.808 824.338 113.8 L 824.338 113.8 L 809.621 119.885 L 809.621 119.885 Q 806.643 112.764 804.162 108.642 L 804.162 108.642 L 804.162 108.642 Q 801.68 104.521 798.486 101.327 L 798.486 101.327 L 798.486 101.327 Q 794.688 97.529 790.891 97.27 L 790.891 97.27 L 790.891 97.27 Q 787.093 97.011 784.244 99.86 L 784.244 99.86 L 784.244 99.86 Q 782.475 101.629 781.978 103.766 L 781.978 103.766 L 781.978 103.766 Q 781.482 105.902 782.043 108.923 L 782.043 108.923 L 782.043 108.923 Q 782.604 111.944 786.1 121.827 L 786.1 121.827 L 786.1 121.827 Q 790.718 134.904 789.747 142.435 L 789.747 142.435 L 789.747 142.435 Q 788.776 149.967 782.604 156.138 Z  M 852.823 157.476 L 800.86 209.439 L 787.481 196.06 L 839.444 144.097 L 822.31 126.963 L 833.445 115.828 L 881.092 163.475 L 869.957 174.61 L 852.823 157.476 L 852.823 157.476 Z  M 875.956 235.938 L 887.091 224.803 L 912.122 249.835 L 879.408 282.549 L 879.408 282.549 Q 871.338 278.449 865.166 273.874 L 865.166 273.874 L 865.166 273.874 Q 858.994 269.299 853.384 263.689 L 853.384 263.689 L 853.384 263.689 Q 839.098 249.403 839.962 233.478 L 839.962 233.478 L 839.962 233.478 Q 840.825 217.553 856.534 201.843 L 856.534 201.843 L 856.534 201.843 Q 871.812 186.565 889.097 186.759 L 889.097 186.759 L 889.097 186.759 Q 906.382 186.953 921.876 202.447 L 921.876 202.447 L 921.876 202.447 Q 931.587 212.158 936.723 225.062 L 936.723 225.062 L 921.574 231.32 L 921.574 231.32 Q 918.121 220.962 910.655 213.496 L 910.655 213.496 L 910.655 213.496 Q 901.98 204.821 890.932 205.425 L 890.932 205.425 L 890.932 205.425 Q 879.883 206.029 870.043 215.869 L 870.043 215.869 L 870.043 215.869 Q 859.771 226.141 858.563 235.765 L 858.563 235.765 L 858.563 235.765 Q 857.354 245.39 865.382 253.417 L 865.382 253.417 L 865.382 253.417 Q 869.568 257.604 874.747 261.056 L 874.747 261.056 L 887.911 247.893 L 875.956 235.938 L 875.956 235.938 Z " fill="rgb(145,234,228)"/></g></svg>